{"glyphs":{":":{"x_min":0,"x_max":198,"ha":198,"o":"m 29 366 q 29 396 50 417 q 72 439 102 439 q 132 439 153 417 q 175 396 175 366 q 175 335 154 314 q 132 293 102 293 q 72 293 50 314 q 29 335 29 366 z m 29 64 q 29 95 50 116 q 71 137 102 137 q 132 137 154 116 q 175 94 175 64 q 175 34 153 13 q 132 -9 102 -9 q 72 -9 50 12 q 29 34 29 64 z"},"$":{"x_min":0,"x_max":385,"ha":385,"o":"m 159 652 l 177 652 l 177 641 q 185 643 201 643 l 215 643 l 215 652 l 233 652 l 232 642 q 293 628 322 598 q 350 567 350 534 q 350 511 336 496 q 322 480 302 480 q 283 480 270 493 q 257 505 257 524 q 257 549 277 562 q 298 576 298 585 q 298 609 233 623 l 233 361 q 295 322 325 276 q 356 229 356 166 q 356 107 324 60 q 292 13 232 -4 l 232 -87 l 215 -87 l 215 -7 l 176 -7 l 176 -87 l 159 -87 l 159 -6 q 33 21 33 124 q 33 149 50 167 q 67 186 91 186 q 112 186 125 172 q 138 159 138 136 q 138 103 101 83 q 83 74 83 66 q 83 50 104 34 q 125 19 159 12 l 159 278 q 33 353 33 484 q 33 541 66 581 q 99 622 159 637 z m 177 622 l 177 400 l 215 373 l 215 625 l 194 625 z m 159 413 l 159 617 q 97 592 97 522 q 97 458 159 413 z m 214 242 l 176 267 l 176 11 q 183 10 191 10 q 201 10 214 13 z m 232 226 l 232 19 q 294 46 294 118 q 294 174 232 226 z"},"?":{"x_min":0,"x_max":344,"ha":344,"o":"m 152 189 l 135 189 l 135 222 q 135 273 138 294 q 141 316 151 342 q 161 368 167 376 q 172 384 204 417 q 260 473 260 528 q 260 570 232 596 q 204 623 158 623 q 128 623 103 608 q 78 594 78 577 q 78 569 98 565 q 149 552 149 506 q 149 481 133 465 q 118 448 94 448 q 67 448 48 468 q 30 488 30 518 q 30 571 70 607 q 111 644 170 644 q 239 644 283 593 q 327 542 327 462 q 327 408 302 365 q 277 323 228 284 q 179 246 169 232 q 159 218 152 189 z m 143 138 q 174 138 195 117 q 217 95 217 65 q 217 34 195 13 q 174 -9 143 -9 q 113 -9 92 13 q 70 35 70 65 q 70 94 92 116 q 113 138 142 138 z"},"<":{"x_min":0,"x_max":667,"ha":667,"o":"m 598 72 l 69 295 l 69 353 l 598 576 l 598 506 l 155 324 l 598 141 z"},"'":{"x_min":0,"x_max":278,"ha":278,"o":"m 151 352 l 128 352 l 77 539 q 67 577 67 600 q 67 634 87 655 q 107 677 139 677 q 170 677 191 656 q 211 634 211 601 q 211 581 200 539 z"},"=":{"x_min":0,"x_max":667,"ha":667,"o":"m 68 472 l 599 472 l 599 407 l 68 407 z m 68 243 l 599 243 l 599 179 l 68 179 z"},"a":{"x_min":0,"x_max":385,"ha":385,"o":"m 220 266 l 220 377 q 220 396 207 409 q 193 421 171 421 q 153 421 136 412 q 120 404 120 395 q 120 388 135 377 q 168 358 168 325 q 168 301 150 285 q 132 268 107 268 q 77 268 59 285 q 41 303 41 331 q 41 377 83 408 q 125 439 190 439 q 257 439 296 404 q 335 369 335 310 l 335 47 q 335 29 345 29 q 359 29 359 73 l 376 73 l 376 56 q 376 28 358 11 q 340 -6 309 -6 q 250 -6 229 45 q 214 18 194 6 q 174 -6 136 -6 q 84 -6 55 20 q 27 46 27 94 q 27 163 120 199 q 164 218 178 228 q 192 237 220 266 z m 220 94 l 220 239 l 199 222 q 169 200 159 184 q 150 167 150 133 l 150 71 q 150 25 179 25 q 196 25 208 45 q 220 64 220 94 z"},"L":{"x_min":0,"x_max":344,"ha":344,"o":"m 20 636 l 232 636 l 232 619 l 187 619 l 187 16 l 205 16 q 250 16 280 58 q 311 100 317 177 l 334 177 l 331 0 l 19 0 l 19 16 l 63 16 l 63 619 l 20 619 z"},"3":{"x_min":0,"x_max":385,"ha":385,"o":"m 96 350 l 150 350 q 201 350 216 377 q 231 404 231 479 q 231 577 218 601 q 204 625 170 625 q 147 625 127 615 q 107 605 107 597 q 107 589 124 581 q 161 563 161 525 q 161 500 144 483 q 127 466 101 466 q 74 466 57 484 q 39 502 39 531 q 39 581 82 612 q 124 643 193 643 q 262 643 308 602 q 354 562 354 501 q 354 445 314 402 q 274 359 203 343 l 203 341 q 283 322 325 276 q 366 229 366 168 q 366 92 313 42 q 261 -7 179 -7 q 116 -7 75 25 q 34 57 34 106 q 34 138 52 159 q 69 180 96 180 q 125 180 143 163 q 161 145 161 118 q 161 81 119 57 q 100 46 100 39 q 100 30 122 20 q 144 10 167 10 q 212 10 227 39 q 241 68 241 145 q 241 250 226 292 q 211 333 164 333 l 96 333 z"},";":{"x_min":0,"x_max":198,"ha":198,"o":"m 29 363 q 29 393 50 415 q 72 436 102 436 q 132 436 153 415 q 175 393 175 363 q 175 333 154 311 q 132 290 102 290 q 71 290 50 311 q 29 333 29 363 z m 67 -155 l 59 -139 q 110 -107 134 -69 q 158 -32 158 -5 q 158 17 145 17 q 142 17 135 10 q 115 -10 87 -10 q 61 -10 43 10 q 25 29 25 58 q 25 90 46 113 q 68 135 99 135 q 134 135 157 106 q 179 77 179 30 q 179 -88 67 -155 z"},"J":{"x_min":0,"x_max":354,"ha":354,"o":"m 127 636 l 347 636 l 347 620 l 302 620 l 302 99 q 302 -98 137 -98 q 89 -98 58 -75 q 27 -52 27 -16 q 27 9 42 24 q 58 40 83 40 q 104 40 119 24 q 134 9 134 -12 q 134 -42 112 -60 q 105 -64 105 -69 q 105 -81 132 -81 q 161 -81 171 -69 q 180 -57 180 -23 l 179 -13 l 179 620 l 127 620 z"},"V":{"x_min":0,"x_max":458,"ha":458,"o":"m 21 636 l 226 636 l 226 620 l 185 620 l 291 207 l 293 207 l 375 573 q 377 579 377 589 q 377 619 345 619 l 322 619 l 322 636 l 452 636 l 452 619 l 439 619 q 403 619 392 568 l 263 -9 l 225 -9 l 61 619 l 21 619 z"},"\"":{"x_min":0,"x_max":555,"ha":555,"o":"m 408 352 l 384 352 l 334 539 q 323 579 323 601 q 323 633 344 655 q 364 677 395 677 q 425 677 446 656 q 467 636 467 606 q 467 587 455 539 z m 172 352 l 148 352 l 98 540 q 88 580 88 600 q 88 634 108 655 q 128 677 160 677 q 190 677 211 656 q 232 636 232 606 q 232 586 220 539 z"},"7":{"x_min":0,"x_max":385,"ha":385,"o":"m 64 634 l 376 634 l 376 614 q 315 511 265 404 q 214 297 214 225 q 214 193 231 151 q 249 109 253 97 q 257 84 257 67 l 257 64 q 256 31 238 12 q 219 -8 190 -8 q 156 -8 134 15 q 112 37 112 73 q 112 158 201 326 l 316 543 l 109 543 q 86 543 74 532 q 62 521 55 495 q 49 469 46 460 l 27 460 z"},"S":{"x_min":0,"x_max":385,"ha":385,"o":"m 37 198 l 54 198 q 69 108 109 58 q 150 8 201 8 q 238 8 262 37 q 286 67 286 112 q 286 186 209 240 q 185 253 145 281 q 105 308 84 330 q 63 353 49 390 q 35 427 35 463 q 35 542 77 593 q 119 644 182 644 q 220 644 251 627 q 283 611 290 611 q 299 611 305 617 q 312 624 312 633 l 312 636 l 328 636 l 328 462 l 311 462 q 301 534 267 580 q 233 626 191 626 q 155 626 135 604 q 114 583 114 546 q 114 500 144 466 q 174 432 250 389 q 369 322 369 192 q 369 106 321 49 q 272 -8 200 -8 q 158 -8 126 14 q 95 35 84 35 q 59 35 56 0 l 37 0 z"},"}":{"x_min":0,"x_max":394,"ha":394,"o":"m 44 -248 l 44 -226 q 139 -208 139 -133 q 139 -102 127 -53 q 115 -5 115 26 q 115 80 154 126 q 193 171 275 189 l 275 191 q 188 214 151 260 q 114 306 114 352 q 114 378 126 428 q 138 478 138 509 q 138 591 44 608 l 44 631 l 60 631 q 138 631 191 583 q 245 536 245 468 q 245 442 232 390 q 219 338 219 312 q 219 221 314 206 l 314 176 q 219 160 219 67 q 219 36 232 -13 q 244 -62 244 -86 q 244 -149 192 -198 q 139 -248 44 -248 z"},"Z":{"x_min":0,"x_max":365,"ha":365,"o":"m 35 636 l 357 636 l 357 619 l 149 17 l 184 17 q 301 17 339 197 l 357 197 l 350 0 l 20 0 l 20 17 l 227 619 l 183 619 q 73 619 53 453 l 35 453 z"},"x":{"x_min":0,"x_max":375,"ha":375,"o":"m 19 431 l 204 431 l 204 414 l 167 414 l 220 292 l 270 378 q 276 390 276 396 q 276 413 241 414 l 241 431 l 352 431 l 352 414 l 342 414 q 310 414 285 370 l 230 273 l 344 17 l 370 17 l 370 0 l 190 0 l 190 17 l 225 17 l 162 156 l 105 58 q 99 46 99 38 q 99 17 122 17 l 141 17 l 141 0 l 22 0 l 22 17 l 39 17 q 61 17 91 69 l 153 176 l 45 414 l 19 414 z"},")":{"x_min":0,"x_max":250,"ha":250,"o":"m 18 613 l 18 635 q 114 550 164 429 q 214 307 214 192 q 214 68 164 -51 q 113 -170 18 -259 l 18 -237 q 104 -127 104 106 l 104 271 q 104 506 18 613 z"},"&":{"x_min":0,"x_max":510,"ha":510,"o":"m 329 1 l 313 35 q 262 -3 204 -3 q 124 -3 75 50 q 27 102 27 189 q 27 253 57 299 q 88 345 161 381 l 137 438 q 125 466 120 486 q 115 505 115 524 q 115 580 153 612 q 191 644 259 644 q 325 644 360 617 q 396 589 396 539 q 396 458 279 415 l 389 166 q 431 251 431 317 q 431 336 422 340 q 414 344 396 344 l 396 360 l 502 360 l 502 343 q 499 344 492 344 q 478 344 469 332 q 460 320 450 287 q 420 183 398 146 q 414 113 426 84 q 438 54 456 17 l 503 17 l 503 1 z m 272 431 q 316 447 316 519 q 316 624 257 624 q 239 624 228 611 q 217 598 217 576 q 217 552 243 497 q 269 441 272 431 z m 305 53 l 169 365 q 125 344 125 297 q 125 253 161 167 q 196 82 218 58 q 240 35 266 35 q 288 35 305 53 z"},"_":{"x_min":0,"x_max":500,"ha":500,"o":"m -9 -76 l 509 -76 l 509 -124 l -9 -124 z"},"v":{"x_min":0,"x_max":396,"ha":396,"o":"m 19 431 l 213 431 l 213 414 l 170 414 l 249 165 l 251 165 l 309 355 q 313 371 313 382 q 313 395 304 404 q 295 414 283 414 l 262 414 l 262 431 l 387 431 l 387 414 q 363 413 350 403 q 338 394 325 352 l 215 -8 l 194 -8 l 54 414 l 19 414 z"},"O":{"x_min":0,"x_max":438,"ha":438,"o":"m 226 644 q 312 644 363 558 q 414 472 414 326 q 414 159 360 76 q 305 -7 224 -7 q 172 -7 126 30 q 81 67 57 133 q 32 200 32 326 q 32 468 86 556 q 139 644 223 644 z m 173 552 l 173 82 q 173 44 186 26 q 198 9 226 9 q 275 9 275 82 l 275 565 q 275 628 223 628 q 173 628 173 552 z"},"(":{"x_min":0,"x_max":250,"ha":250,"o":"m 240 635 l 240 615 q 155 510 155 255 l 155 145 q 155 4 174 -84 q 193 -172 243 -238 l 242 -260 q 143 -166 94 -47 q 45 71 45 182 q 45 313 98 433 q 151 552 240 635 z"},"C":{"x_min":0,"x_max":333,"ha":333,"o":"m 307 0 l 277 30 q 243 -8 195 -8 q 132 -8 81 67 q 30 143 30 326 q 30 468 77 556 q 125 644 198 644 q 226 644 241 635 q 256 626 273 608 q 288 618 300 636 l 318 636 l 318 473 l 300 473 q 267 626 206 626 q 169 626 169 547 l 169 100 q 169 58 181 35 q 193 11 214 11 q 247 11 272 54 q 297 97 309 177 l 325 177 l 325 0 z"},"W":{"x_min":0,"x_max":698,"ha":698,"o":"m 586 636 l 692 636 l 692 620 q 667 619 656 608 q 645 597 636 564 l 483 -9 l 445 -9 l 363 284 l 361 284 l 265 -9 l 230 -9 l 49 620 l 13 620 l 13 636 l 524 636 l 524 620 l 504 620 q 471 620 460 585 l 429 488 l 514 183 l 516 183 l 621 576 q 624 588 624 597 q 624 620 607 620 l 587 620 z m 174 620 l 302 163 l 304 163 l 354 312 l 268 620 z m 390 620 l 419 517 l 421 517 l 441 584 q 443 592 443 598 q 443 620 420 620 z"},"A":{"x_min":0,"x_max":448,"ha":448,"o":"m 201 645 l 237 645 l 401 16 l 442 16 l 442 0 l 237 0 l 237 17 l 276 17 l 234 178 l 114 178 l 89 67 q 87 59 87 53 q 87 16 123 16 l 140 16 l 140 0 l 10 0 l 10 17 l 26 17 q 59 17 69 61 z m 169 424 l 117 195 l 230 195 l 171 424 z"},"f":{"x_min":0,"x_max":240,"ha":240,"o":"m 61 431 q 53 471 53 511 q 53 573 79 608 q 104 643 149 643 q 185 643 208 618 q 231 593 231 555 q 231 531 217 514 q 204 497 185 497 q 163 497 148 513 q 134 529 134 554 q 134 579 151 600 q 157 609 157 612 q 157 624 142 624 q 123 624 108 607 q 93 590 93 568 q 93 531 112 500 q 131 469 172 431 l 222 431 l 223 414 l 180 414 l 180 17 l 225 17 l 225 0 l 20 0 l 20 17 l 63 17 l 63 414 l 21 414 l 21 431 z"},"Q":{"x_min":0,"x_max":438,"ha":438,"o":"m 281 4 l 281 -63 q 281 -135 331 -135 q 346 -135 352 -131 l 352 -148 q 316 -158 289 -158 q 173 -158 173 -29 l 173 2 q 34 65 34 325 q 34 467 88 556 q 141 644 225 644 q 313 644 365 557 q 417 469 417 318 q 417 66 281 4 z m 176 552 l 176 79 q 176 9 228 9 q 278 9 278 79 l 278 563 q 278 627 226 627 q 176 627 176 552 z"},"w":{"x_min":0,"x_max":583,"ha":583,"o":"m 18 431 l 218 431 l 218 414 l 180 414 l 246 175 l 248 175 l 335 431 l 354 431 l 442 173 l 444 173 l 497 368 q 498 371 498 378 l 498 380 q 498 395 489 405 q 480 414 465 414 l 449 414 l 449 431 l 571 431 l 571 414 q 527 411 512 358 l 410 -8 l 390 -8 l 298 261 l 296 261 l 204 -8 l 182 -8 l 62 414 l 18 414 z"},"-":{"x_min":0,"x_max":198,"ha":198,"o":"m 21 261 l 185 261 l 185 171 l 21 171 z"},"E":{"x_min":0,"x_max":354,"ha":354,"o":"m 18 636 l 343 636 l 343 483 l 326 483 q 306 619 222 619 l 185 619 l 185 346 l 207 346 q 240 346 260 365 q 279 385 279 418 l 279 436 l 296 436 l 296 231 l 279 231 l 279 247 q 279 328 211 328 l 185 328 l 185 17 l 217 17 q 305 17 333 176 l 349 176 l 349 0 l 19 0 l 19 17 l 62 17 l 62 619 l 18 619 z"},"s":{"x_min":0,"x_max":302,"ha":302,"o":"m 40 147 l 58 147 q 95 10 161 10 q 185 10 202 27 q 219 45 219 70 q 219 102 197 125 q 175 148 135 167 q 94 187 72 205 q 51 224 39 250 q 27 276 27 310 q 27 367 58 403 q 90 439 139 439 q 173 439 196 428 q 219 417 225 417 q 237 417 237 431 l 254 431 l 254 306 l 236 306 q 212 421 142 421 q 115 421 100 406 q 84 392 84 368 q 84 347 102 329 q 121 312 178 282 q 236 252 258 220 q 280 188 280 133 q 280 72 245 32 q 211 -7 158 -7 q 124 -7 98 5 q 72 17 69 17 q 61 17 58 0 l 40 0 z"},">":{"x_min":0,"x_max":667,"ha":667,"o":"m 68 576 l 598 352 l 598 295 l 68 72 l 68 141 l 512 323 l 68 506 z"},"l":{"x_min":0,"x_max":229,"ha":229,"o":"m 21 636 l 180 636 l 180 17 l 222 17 l 222 0 l 22 0 l 22 17 l 65 17 l 65 619 l 21 619 z"},"8":{"x_min":0,"x_max":385,"ha":385,"o":"m 156 331 q 98 355 71 397 q 43 439 43 491 q 43 557 86 600 q 130 644 195 644 q 267 644 311 602 q 355 559 355 490 q 355 385 244 331 q 367 292 367 160 q 367 90 318 42 q 269 -7 198 -7 q 127 -7 80 43 q 32 93 32 167 q 32 289 156 331 z m 158 532 l 158 446 q 158 373 167 356 q 176 339 202 339 q 227 339 234 358 q 241 377 241 460 l 241 522 q 241 595 231 611 q 221 627 200 627 q 181 627 170 613 q 158 598 158 532 z m 155 210 l 155 121 q 155 60 162 35 q 170 10 200 10 q 221 10 233 26 q 245 43 245 117 l 245 136 l 244 167 l 245 183 l 245 209 q 245 281 235 300 q 226 320 201 320 q 176 320 165 301 q 155 282 155 210 z"},"\\":{"x_min":0,"x_max":375,"ha":375,"o":"m 50 635 l 138 635 l 307 -199 l 220 -199 z"},"e":{"x_min":0,"x_max":389,"ha":389,"o":"m 347 144 l 363 144 q 350 -7 217 -7 q 134 -7 84 54 q 35 115 35 218 q 35 313 85 376 q 135 439 209 439 q 375 439 370 205 l 164 205 l 164 103 q 164 10 229 10 q 328 10 347 144 z m 242 222 l 242 381 q 242 396 231 410 q 219 423 206 423 q 187 423 175 409 q 164 396 164 373 l 164 222 z"},"b":{"x_min":0,"x_max":406,"ha":406,"o":"m 18 636 l 174 636 l 174 406 q 205 438 244 438 q 310 438 345 378 q 381 318 381 219 q 381 112 345 53 q 310 -6 246 -6 q 200 -6 175 31 l 173 31 l 173 0 l 16 0 l 16 17 l 58 17 l 58 619 l 18 619 z m 174 365 l 174 106 q 174 69 186 47 q 197 26 217 26 q 236 26 244 50 q 251 74 251 130 l 251 328 q 251 410 219 410 q 204 410 189 393 q 174 376 174 365 z"},"%":{"x_min":0,"x_max":698,"ha":698,"o":"m 527 644 l 547 644 l 185 -14 l 164 -14 z m 34 478 q 34 551 70 597 q 106 644 162 644 q 219 644 255 598 q 290 553 290 478 q 290 405 254 359 q 218 312 162 312 q 106 312 70 359 q 34 405 34 478 z m 133 523 l 133 446 q 133 367 139 348 q 145 329 162 329 q 181 329 186 349 q 191 368 191 416 l 191 532 q 191 582 187 604 q 183 626 162 626 q 143 626 138 602 q 133 578 133 523 z m 548 318 q 604 318 639 272 q 675 226 675 153 q 675 80 639 33 q 604 -13 548 -13 q 491 -13 456 33 q 420 79 420 153 q 420 226 455 272 q 491 318 546 318 z m 517 183 l 517 108 q 517 52 523 28 q 528 4 548 4 q 567 4 572 24 q 577 44 577 91 l 577 207 q 577 258 573 280 q 568 301 548 301 q 532 301 525 284 q 517 267 517 183 z"},"m":{"x_min":0,"x_max":615,"ha":615,"o":"m 182 431 l 182 375 l 184 375 q 221 440 284 440 q 348 440 372 366 q 400 412 422 426 q 444 439 476 439 q 516 439 543 408 q 570 377 570 330 l 570 17 l 609 17 l 609 0 l 427 0 l 427 17 l 454 17 l 454 340 q 454 395 428 395 q 406 395 391 360 q 376 326 376 310 l 376 17 l 404 17 l 404 0 l 232 0 l 232 17 l 259 17 l 259 355 q 259 372 252 383 q 246 394 235 394 q 217 394 199 364 q 182 333 182 300 l 182 17 l 209 17 l 209 0 l 21 0 l 21 17 l 65 17 l 65 414 l 21 414 l 21 431 z"},"#":{"x_min":0,"x_max":668,"ha":668,"o":"m 44 475 l 203 475 l 245 672 l 304 672 l 262 475 l 468 475 l 509 672 l 569 672 l 527 475 l 624 475 l 624 415 l 515 415 l 478 234 l 624 234 l 624 174 l 466 174 l 425 -22 l 365 -22 l 407 174 l 200 174 l 159 -22 l 99 -22 l 140 174 l 44 174 l 44 234 l 153 234 l 191 415 l 44 415 z m 250 415 l 212 235 l 419 235 l 456 415 z"},",":{"x_min":0,"x_max":198,"ha":198,"o":"m 69 -154 l 60 -140 q 110 -108 135 -70 q 159 -33 159 -6 q 159 16 146 16 q 141 16 127 3 q 113 -10 90 -10 q 63 -10 45 10 q 27 29 27 58 q 27 90 48 113 q 70 136 101 136 q 137 136 159 106 q 182 77 182 29 q 182 -83 69 -154 z"},"n":{"x_min":0,"x_max":427,"ha":427,"o":"m 179 431 l 179 378 q 182 380 186 387 q 209 417 229 428 q 249 440 277 440 q 318 440 346 411 q 374 381 374 338 l 374 17 l 417 17 l 417 0 l 230 0 l 230 17 l 257 17 l 257 362 q 257 400 233 400 q 209 400 194 362 q 179 325 179 315 l 179 17 l 209 17 l 209 0 l 21 0 l 21 17 l 63 17 l 63 414 l 21 414 l 21 431 z"},"h":{"x_min":0,"x_max":427,"ha":427,"o":"m 21 636 l 179 636 l 179 379 l 181 379 q 214 440 275 440 q 316 440 345 412 q 373 383 373 342 l 373 17 l 414 17 l 414 0 l 230 0 l 230 17 l 258 17 l 258 361 q 258 399 234 399 q 215 399 197 372 q 179 346 179 316 l 179 17 l 206 17 l 206 0 l 18 0 l 18 17 l 63 17 l 63 619 l 21 619 z"},"z":{"x_min":0,"x_max":344,"ha":344,"o":"m 47 431 l 333 431 l 152 17 l 186 17 q 271 17 311 181 l 327 181 l 327 0 l 24 0 l 208 414 l 180 414 q 147 414 120 386 q 92 357 65 276 q 63 269 61 264 l 44 264 z"},"B":{"x_min":0,"x_max":438,"ha":438,"o":"m 17 636 l 233 636 q 309 636 355 593 q 402 549 402 478 q 402 436 380 400 q 357 364 317 345 q 277 326 269 326 l 269 324 q 411 299 411 165 q 411 89 367 45 q 323 0 248 0 l 15 0 l 15 16 l 62 16 l 62 619 l 17 619 z m 185 619 l 185 334 l 222 334 q 270 334 270 383 l 270 557 q 270 590 261 604 q 251 619 229 619 z m 185 317 l 185 17 l 227 17 q 274 17 274 78 l 274 253 q 274 317 226 317 z"},"K":{"x_min":0,"x_max":458,"ha":458,"o":"m 456 0 l 257 0 l 257 17 l 292 17 l 187 319 l 185 319 l 185 16 l 217 16 l 217 0 l 14 0 l 14 17 l 61 17 l 61 619 l 15 619 l 15 636 l 230 636 l 230 619 l 185 619 l 185 332 l 187 332 l 282 502 q 331 590 332 595 q 334 599 334 604 q 334 619 316 619 l 291 619 l 291 636 l 404 636 l 404 619 q 369 619 354 593 l 272 446 l 422 17 l 456 17 z"},"R":{"x_min":0,"x_max":458,"ha":458,"o":"m 19 636 l 263 636 q 326 636 366 595 q 407 554 407 490 q 407 369 279 345 l 279 343 l 287 343 q 348 335 373 311 q 399 286 399 236 l 399 65 l 401 47 q 401 42 406 37 q 412 32 417 32 q 437 32 440 74 l 458 70 q 453 31 434 13 q 415 -5 372 -5 q 326 -5 299 27 q 273 59 273 115 l 273 279 q 273 305 259 320 q 244 335 219 335 l 185 335 l 185 17 l 230 17 l 230 0 l 19 0 l 19 17 l 63 17 l 63 620 l 19 620 z m 185 620 l 185 352 l 225 352 q 247 352 260 370 q 274 387 274 415 l 274 540 q 274 620 223 620 z"},"T":{"x_min":0,"x_max":406,"ha":406,"o":"m 20 636 l 392 636 l 392 468 l 375 468 q 360 619 268 619 l 268 16 l 315 16 l 315 0 l 99 0 l 100 17 l 144 17 l 144 619 q 95 616 69 572 q 42 527 37 467 l 20 467 z"},"P":{"x_min":0,"x_max":427,"ha":427,"o":"m 14 636 l 210 636 q 312 636 360 585 q 409 535 409 471 q 409 391 357 346 q 306 301 213 301 l 184 301 l 184 16 l 229 16 l 229 0 l 13 0 l 13 16 l 61 16 l 61 619 l 14 619 z m 184 619 l 184 319 l 214 319 q 240 319 258 337 q 276 354 276 427 l 276 504 q 276 557 268 583 q 259 608 244 614 q 229 619 196 619 z"},"|":{"x_min":0,"x_max":527,"ha":527,"o":"m 231 633 l 296 633 l 296 -198 l 231 -198 z"},"t":{"x_min":0,"x_max":260,"ha":260,"o":"m 72 551 l 188 551 l 188 431 l 238 431 l 238 414 l 188 414 l 188 40 q 188 22 200 22 q 225 22 238 88 l 254 88 q 242 -8 158 -8 q 117 -8 94 10 q 72 28 72 62 l 72 414 l 21 414 l 21 431 l 72 431 z"},"M":{"x_min":0,"x_max":510,"ha":510,"o":"m 18 636 l 197 636 l 260 308 l 321 636 l 501 636 l 501 619 l 457 619 l 457 17 l 500 17 l 500 0 l 288 0 l 288 16 l 334 16 l 332 605 l 220 0 l 195 0 l 78 616 l 78 67 q 78 40 88 28 q 98 17 123 17 l 123 0 l 17 0 l 17 17 q 41 17 51 28 q 60 39 60 67 l 60 619 l 18 619 z"},"g":{"x_min":0,"x_max":427,"ha":427,"o":"m 181 64 l 318 64 q 358 64 382 34 q 405 5 405 -47 q 405 -124 350 -168 q 294 -212 197 -212 q 123 -212 75 -188 q 28 -164 28 -128 q 28 -86 105 -42 q 67 -35 50 -14 q 33 8 33 54 q 33 140 122 141 l 122 143 q 50 195 50 277 q 50 351 93 395 q 136 440 206 440 q 262 440 313 400 q 343 452 381 452 q 399 452 412 438 q 424 424 424 403 q 424 383 415 370 q 406 358 391 358 q 362 358 358 381 q 354 405 344 405 q 338 405 334 399 q 329 393 325 386 q 358 334 358 282 q 358 211 315 167 q 272 122 205 122 q 182 122 159 125 q 137 127 131 127 q 100 127 81 115 q 62 104 62 85 q 62 71 76 67 q 90 62 122 62 q 140 62 150 63 q 160 64 181 64 z m 167 376 l 167 187 q 167 166 178 153 q 189 139 206 139 q 222 139 232 153 q 243 167 243 189 l 243 372 q 243 395 233 408 q 222 422 205 422 q 188 422 177 409 q 167 397 167 376 z m 149 -45 l 131 -44 q 83 -74 83 -117 q 83 -194 191 -194 q 272 -194 325 -163 q 378 -132 378 -87 q 378 -45 327 -45 z"},"j":{"x_min":0,"x_max":229,"ha":229,"o":"m 55 568 q 55 595 74 614 q 93 633 120 633 q 147 633 166 614 q 185 595 185 568 q 185 542 166 523 q 147 504 120 504 q 93 504 74 523 q 55 542 55 568 z m 23 431 l 183 431 l 183 46 l 187 -1 l 192 -55 q 193 -65 193 -91 q 193 -146 167 -177 q 142 -209 99 -209 q 64 -209 41 -184 q 17 -159 17 -122 q 17 -96 31 -80 q 44 -64 67 -64 q 86 -64 100 -80 q 114 -97 114 -120 q 114 -141 100 -161 q 92 -174 92 -181 q 92 -193 108 -193 q 126 -193 142 -175 q 157 -157 157 -134 q 157 -85 97 -22 q 68 10 68 26 l 68 414 l 23 414 z"},"i":{"x_min":0,"x_max":229,"ha":229,"o":"m 49 568 q 49 595 68 614 q 87 633 114 633 q 141 633 160 614 q 179 595 179 568 q 179 541 160 522 q 141 503 114 503 q 87 503 68 522 q 49 541 49 568 z m 20 431 l 179 431 l 179 17 l 218 17 l 218 0 l 19 0 l 19 17 l 63 17 l 63 414 l 20 414 z"},"y":{"x_min":0,"x_max":396,"ha":396,"o":"m 21 431 l 215 431 l 214 414 l 173 414 l 258 154 l 260 154 l 310 352 q 314 365 314 381 q 314 414 286 414 l 264 414 l 264 431 l 391 431 l 390 414 q 364 413 349 396 q 334 380 324 340 l 211 -112 q 207 -143 184 -177 q 162 -211 112 -211 q 77 -211 55 -191 q 33 -171 33 -140 q 33 -110 50 -93 q 66 -75 95 -75 q 118 -75 134 -91 q 149 -107 149 -131 q 149 -141 145 -151 l 136 -170 q 136 -171 135 -172 q 135 -183 148 -183 q 159 -183 171 -165 q 183 -146 189 -123 l 219 -8 l 199 -8 l 55 414 l 21 414 z"},"@":{"x_min":0,"x_max":677,"ha":677,"o":"m 667 207 q 634 107 545 50 q 456 -7 355 -7 q 224 -7 133 82 q 41 170 41 302 q 41 395 87 474 q 133 553 213 599 q 292 644 381 644 q 496 644 568 572 q 640 500 640 404 q 640 309 585 234 q 529 158 447 158 q 364 158 364 214 q 364 234 374 268 l 372 269 q 307 158 243 158 q 214 158 197 183 q 180 207 180 238 q 180 318 251 401 q 322 484 382 484 q 413 484 423 441 l 424 441 l 434 474 l 519 481 q 469 313 458 278 q 447 242 447 219 q 447 208 454 199 q 460 190 473 190 q 524 190 570 253 q 616 316 616 406 q 616 488 552 555 q 488 622 384 622 q 262 622 177 522 q 93 422 93 293 q 93 168 166 92 q 239 15 357 15 q 446 15 531 67 q 615 119 645 207 z m 305 240 q 337 240 373 307 q 409 375 409 417 q 409 452 383 452 q 347 452 311 391 q 275 329 275 279 q 275 240 305 240 z"},".":{"x_min":0,"x_max":198,"ha":198,"o":"m 30 66 q 30 96 52 117 q 73 139 103 139 q 133 139 155 118 q 176 96 176 66 q 176 36 155 15 q 133 -7 103 -7 q 73 -7 51 14 q 30 36 30 66 z"},"p":{"x_min":0,"x_max":406,"ha":406,"o":"m 176 431 l 176 403 q 209 439 248 439 q 308 439 345 380 q 382 321 382 222 q 382 112 345 53 q 309 -6 242 -6 q 221 -6 207 1 q 194 8 176 23 l 176 -187 l 227 -187 l 227 -204 l 19 -204 l 19 -187 l 60 -187 l 60 414 l 17 414 l 17 431 z m 176 345 l 176 60 q 197 20 221 20 q 236 20 244 39 q 253 57 253 90 l 253 334 q 253 406 216 406 q 200 406 188 388 q 176 370 176 345 z"},"X":{"x_min":0,"x_max":427,"ha":427,"o":"m 16 636 l 220 636 l 220 619 l 188 619 q 184 619 184 616 l 238 448 l 298 584 q 302 591 302 601 q 302 619 283 619 l 265 619 l 265 636 l 377 636 l 377 619 q 347 619 336 611 q 325 602 314 578 l 247 423 l 378 17 l 418 17 l 418 0 l 216 0 l 216 17 l 251 17 l 174 254 l 92 67 q 86 55 86 41 q 86 17 108 17 l 124 17 l 124 0 l 16 0 l 16 17 q 34 17 45 25 q 56 33 66 55 l 165 281 l 55 619 l 16 619 z"},"*":{"x_min":0,"x_max":385,"ha":385,"o":"m 202 448 q 186 429 176 371 q 171 335 158 320 q 146 305 124 305 q 104 305 90 319 q 75 333 75 353 q 75 370 87 383 q 98 395 134 415 q 169 435 186 457 q 175 462 160 462 q 139 462 116 458 q 92 455 84 455 q 59 455 43 468 q 27 481 27 501 q 27 521 41 535 q 55 549 74 549 q 99 549 138 513 q 170 480 193 474 q 192 505 171 545 q 154 580 154 598 q 154 618 167 631 q 179 643 200 643 q 247 643 247 596 q 247 580 229 541 q 211 502 211 475 l 211 474 q 237 483 262 509 q 288 534 299 541 q 311 548 329 548 q 348 548 360 535 q 373 521 373 502 q 373 456 316 456 q 301 456 282 459 q 264 462 247 462 q 236 462 217 457 q 236 432 271 414 q 305 396 317 383 q 329 370 329 352 q 329 333 315 319 q 301 305 280 305 q 257 305 245 322 q 234 338 227 381 q 220 425 202 448 z"},"Y":{"x_min":0,"x_max":458,"ha":458,"o":"m 18 636 l 238 636 l 238 619 l 191 619 l 294 322 l 296 322 l 381 577 q 385 588 385 600 q 385 620 362 620 l 345 620 l 345 636 l 453 636 l 453 619 q 429 619 417 609 q 406 599 398 576 l 303 291 l 303 16 l 349 16 l 349 0 l 134 0 l 134 16 l 179 16 l 179 288 l 64 619 l 18 619 z"},"c":{"x_min":0,"x_max":365,"ha":365,"o":"m 335 137 l 351 137 q 324 -7 212 -7 q 134 -7 85 55 q 36 117 36 217 q 36 313 87 376 q 138 440 214 440 q 271 440 305 410 q 339 380 339 330 q 339 301 321 282 q 303 262 277 262 q 254 262 238 278 q 222 293 222 315 q 222 366 270 375 q 291 379 291 390 q 291 402 268 413 q 244 423 229 423 q 204 423 190 411 q 177 398 172 375 q 167 351 167 292 l 167 95 q 167 13 226 13 q 262 13 291 45 q 319 77 335 137 z"},"!":{"x_min":0,"x_max":198,"ha":198,"o":"m 114 188 l 98 188 q 95 291 60 425 q 38 512 38 549 q 38 592 57 617 q 76 642 109 642 q 139 642 157 616 q 176 591 176 549 q 176 508 147 392 q 118 276 114 188 z m 34 66 q 34 95 55 116 q 77 137 107 137 q 136 137 158 116 q 179 94 179 65 q 179 34 158 13 q 138 -8 107 -8 q 76 -8 55 13 q 34 35 34 66 z"},"/":{"x_min":0,"x_max":375,"ha":375,"o":"m 237 635 l 324 635 l 155 -200 l 68 -200 z"},"[":{"x_min":0,"x_max":250,"ha":250,"o":"m 55 632 l 239 632 l 239 616 l 151 616 l 151 -233 l 240 -233 l 240 -250 l 55 -250 z"},"6":{"x_min":0,"x_max":385,"ha":385,"o":"m 346 644 l 346 626 q 275 611 220 540 q 165 470 158 348 l 160 346 q 192 386 239 386 q 295 386 332 335 q 368 285 368 205 q 368 116 319 54 q 270 -7 201 -7 q 127 -7 80 65 q 33 137 33 253 q 33 417 131 524 q 228 630 346 644 z m 156 275 l 156 73 q 156 45 168 27 q 181 10 201 10 q 221 10 233 27 q 244 43 244 73 l 244 299 q 244 324 234 339 q 224 353 206 353 q 184 353 170 332 q 156 311 156 275 z"},"r":{"x_min":0,"x_max":344,"ha":344,"o":"m 187 431 l 187 385 l 189 385 q 210 435 265 435 q 298 435 319 414 q 340 393 340 358 q 340 333 323 316 q 307 299 282 299 q 259 299 244 314 q 230 329 230 353 q 230 375 244 389 q 259 404 259 410 q 259 417 247 417 q 224 417 205 385 q 187 353 187 310 l 187 17 l 235 17 l 235 0 l 31 0 l 31 17 l 71 17 l 71 414 l 30 414 l 30 431 z"},"2":{"x_min":0,"x_max":385,"ha":385,"o":"m 32 58 l 150 207 q 203 273 222 325 q 241 377 241 461 q 241 550 227 586 q 212 621 170 621 q 142 621 112 601 q 82 582 82 563 q 82 548 103 545 q 168 538 168 481 q 168 455 150 436 q 132 417 107 417 q 75 417 55 439 q 35 461 35 497 q 35 560 80 600 q 125 641 194 641 q 266 641 314 593 q 363 545 363 473 q 363 421 335 372 q 307 323 224 247 q 142 171 84 91 l 292 91 q 320 91 332 105 q 343 120 348 152 l 364 152 l 350 0 l 32 0 z"},"{":{"x_min":0,"x_max":394,"ha":394,"o":"m 350 631 l 350 609 q 255 590 255 516 q 255 485 267 436 q 279 388 279 357 q 279 301 239 256 q 200 211 119 193 l 119 191 q 208 167 244 123 q 280 78 280 30 q 280 5 268 -45 q 256 -96 256 -126 q 256 -209 350 -226 l 350 -248 q 345 -249 334 -249 q 256 -249 203 -201 q 149 -154 149 -86 q 149 -59 162 -8 q 175 43 175 71 q 175 161 80 177 l 80 206 q 175 223 175 316 q 175 348 162 395 q 150 443 150 469 q 150 532 202 581 q 254 630 350 631 z"},"9":{"x_min":0,"x_max":385,"ha":385,"o":"m 53 -7 l 53 10 q 150 39 197 120 q 243 202 243 291 q 207 251 158 251 q 104 251 69 302 q 33 354 33 431 q 33 521 82 583 q 131 644 201 644 q 276 644 322 570 q 367 496 367 371 q 367 233 280 125 q 193 16 53 -7 z m 156 560 l 156 371 q 156 326 164 307 q 172 288 194 288 q 245 288 245 371 l 245 560 q 245 591 234 608 q 222 626 202 626 q 156 626 156 560 z"}," ":{"x_min":0,"x_max":193,"ha":193,"o":""},"I":{"x_min":0,"x_max":240,"ha":240,"o":"m 22 636 l 231 636 l 231 619 l 187 619 l 187 17 l 232 17 l 232 0 l 23 0 l 23 17 l 64 17 l 64 619 l 22 619 z"},"H":{"x_min":0,"x_max":458,"ha":458,"o":"m 21 636 l 223 636 l 223 620 l 187 620 l 187 362 l 284 362 l 284 620 l 250 620 l 250 636 l 450 636 l 450 620 l 407 620 l 407 17 l 450 17 l 450 0 l 250 0 l 250 17 l 284 17 l 284 344 l 187 344 l 187 17 l 223 17 l 223 0 l 21 0 l 21 17 l 64 17 l 64 620 l 21 620 z"},"4":{"x_min":0,"x_max":385,"ha":385,"o":"m 251 641 l 303 641 l 303 175 l 356 175 l 356 231 l 372 231 l 372 103 l 356 103 l 356 159 l 302 159 l 302 17 l 366 17 l 366 0 l 127 0 l 127 17 l 191 17 l 191 159 l 19 159 l 19 177 z m 189 483 l 39 176 l 191 176 l 191 483 z"},"~":{"x_min":0,"x_max":667,"ha":667,"o":"m 572 398 l 597 398 q 595 330 560 290 q 524 250 472 250 q 442 250 413 259 q 383 269 288 308 q 212 339 182 339 q 112 339 95 251 l 70 251 q 73 330 110 365 q 147 399 190 399 q 220 399 256 387 q 293 376 372 343 q 450 309 482 309 q 561 309 572 398 z"},"D":{"x_min":0,"x_max":438,"ha":438,"o":"m 18 636 l 226 636 q 268 636 317 606 q 367 576 393 501 q 420 425 420 310 q 420 164 366 82 q 312 0 216 0 l 18 0 l 18 16 l 63 16 l 63 619 l 18 619 z m 185 619 l 185 17 l 213 17 q 280 17 280 110 l 280 557 q 280 585 264 602 q 249 619 223 619 z"},"^":{"x_min":0,"x_max":581,"ha":581,"o":"m 72 325 l 272 676 l 312 676 l 510 325 l 432 325 l 288 575 l 146 325 z"},"0":{"x_min":0,"x_max":385,"ha":385,"o":"m 197 643 q 271 643 318 554 q 366 464 366 322 q 366 179 318 86 q 269 -8 198 -8 q 128 -8 79 83 q 30 173 30 308 q 30 461 80 552 q 131 643 195 643 z m 242 118 l 242 513 q 242 626 199 626 q 172 626 163 596 q 153 567 153 498 l 153 113 q 153 9 200 9 q 242 9 242 118 z"},"F":{"x_min":0,"x_max":354,"ha":354,"o":"m 20 636 l 348 636 l 348 484 l 332 484 q 323 550 297 584 q 270 619 230 619 l 189 619 l 189 347 l 214 347 q 243 347 264 366 q 284 385 284 412 l 284 437 l 301 437 l 301 233 l 285 233 l 285 239 q 285 281 269 305 q 252 329 224 329 l 189 329 l 189 16 l 238 16 l 238 0 l 21 0 l 21 16 l 66 16 l 66 619 l 20 619 z"},"`":{"x_min":0,"x_max":333,"ha":333,"o":"m 58 643 l 167 643 l 218 474 l 202 474 z"},"k":{"x_min":0,"x_max":427,"ha":427,"o":"m 23 636 l 181 636 l 181 17 l 221 17 l 221 0 l 22 0 l 22 17 l 65 17 l 65 619 l 23 619 z m 264 431 l 381 431 l 381 414 l 366 414 q 353 414 344 408 q 335 401 320 382 l 277 327 l 386 17 l 420 17 l 420 0 l 243 0 l 243 17 l 271 17 l 192 242 l 295 380 q 304 392 304 402 q 304 414 288 414 l 264 414 z"},"u":{"x_min":0,"x_max":427,"ha":427,"o":"m 16 431 l 174 431 l 174 73 q 174 40 204 40 q 221 40 234 66 q 248 91 252 114 q 253 114 253 115 l 253 414 l 211 414 l 211 431 l 369 431 l 369 17 l 412 17 l 412 0 l 253 0 l 253 58 l 251 58 q 231 26 210 11 q 189 -4 156 -4 q 113 -4 86 24 q 58 53 58 97 l 58 414 l 16 414 z"},"]":{"x_min":0,"x_max":250,"ha":250,"o":"m 17 632 l 201 632 l 201 -250 l 17 -250 l 17 -234 l 105 -234 l 105 615 l 17 615 z"},"U":{"x_min":0,"x_max":396,"ha":396,"o":"m 14 636 l 228 636 l 228 620 l 182 620 l 182 78 q 182 50 198 32 q 213 14 238 14 q 278 14 301 42 q 324 70 324 121 l 324 587 q 324 598 314 609 q 305 620 295 620 l 274 620 l 275 636 l 386 636 l 386 620 l 375 620 q 363 620 352 609 q 341 599 341 586 l 341 119 q 341 54 307 24 q 273 -7 202 -7 q 58 -7 58 141 l 58 620 l 13 620 z"},"o":{"x_min":0,"x_max":417,"ha":417,"o":"m 36 220 q 36 313 88 376 q 140 439 215 439 q 289 439 341 375 q 393 312 393 222 q 393 122 342 58 q 292 -7 214 -7 q 136 -7 86 56 q 36 120 36 220 z m 167 347 l 167 80 q 167 9 213 9 q 262 9 262 76 l 262 340 q 262 385 252 403 q 241 421 214 421 q 188 421 178 404 q 167 387 167 347 z"},"N":{"x_min":0,"x_max":448,"ha":448,"o":"m 8 636 l 185 636 l 354 114 l 356 114 l 356 576 q 356 619 314 619 l 296 619 l 296 636 l 429 636 l 429 619 l 411 619 q 378 619 378 593 l 378 0 l 268 0 l 86 554 l 84 554 l 84 74 q 84 17 122 17 l 144 17 l 144 0 l 19 0 l 19 17 q 43 17 53 26 q 62 35 62 60 l 62 619 l 8 619 z"},"+":{"x_min":0,"x_max":667,"ha":667,"o":"m 67 355 l 300 355 l 300 589 l 364 589 l 364 355 l 599 355 l 599 291 l 364 291 l 364 59 l 300 59 l 300 291 l 67 291 z"},"G":{"x_min":0,"x_max":438,"ha":438,"o":"m 383 261 l 383 76 q 350 32 305 12 q 259 -8 223 -8 q 129 -8 80 73 q 30 154 30 307 q 30 478 82 561 q 134 644 207 644 q 264 644 296 601 q 317 619 326 636 l 345 636 l 345 472 l 328 472 q 302 579 272 603 q 243 627 221 627 q 168 627 168 528 l 168 73 q 168 43 181 27 q 194 10 216 10 q 236 10 249 25 q 261 41 261 67 l 261 261 l 215 261 l 215 278 l 429 278 l 429 261 z"},"q":{"x_min":0,"x_max":406,"ha":406,"o":"m 240 -187 l 240 24 q 222 8 208 1 q 195 -6 172 -6 q 107 -6 70 53 q 32 111 32 213 q 32 316 68 377 q 104 437 164 437 q 208 437 240 402 l 240 431 l 397 431 l 397 414 l 356 414 l 356 -187 l 396 -187 l 396 -204 l 188 -204 l 188 -187 z m 163 343 l 163 75 q 163 50 172 36 q 182 21 197 21 q 211 21 226 37 q 240 53 240 69 l 240 343 q 240 368 228 387 q 215 406 200 406 q 183 406 173 389 q 163 372 163 343 z"},"d":{"x_min":0,"x_max":406,"ha":406,"o":"m 198 636 l 359 636 l 359 17 l 400 17 l 400 0 l 243 0 l 243 30 q 220 8 206 1 q 192 -6 170 -6 q 111 -6 73 52 q 36 110 36 205 q 36 315 73 377 q 110 438 176 438 q 215 438 243 406 l 243 619 l 198 619 z m 243 86 l 243 367 q 233 391 224 400 q 214 410 200 410 q 167 410 167 344 l 167 97 q 167 64 177 46 q 187 27 204 27 q 220 27 232 44 q 243 61 243 86 z"},"1":{"x_min":0,"x_max":385,"ha":385,"o":"m 77 628 l 109 628 q 164 628 239 640 q 245 641 246 641 l 259 641 l 259 17 l 326 17 l 326 0 l 76 0 l 76 17 l 146 17 l 146 610 l 77 610 z"},"5":{"x_min":0,"x_max":385,"ha":385,"o":"m 79 350 l 86 601 q 86 620 98 620 l 292 620 q 338 620 339 644 l 354 644 q 348 584 334 557 q 320 529 291 529 l 102 529 l 99 368 q 135 383 177 383 q 261 383 313 331 q 365 278 365 194 q 365 104 312 48 q 258 -7 171 -7 q 116 -7 76 27 q 35 61 35 105 q 35 138 53 159 q 71 180 99 180 q 127 180 145 164 q 162 147 162 121 q 162 79 121 57 q 103 48 103 39 q 103 29 122 20 q 142 11 165 11 q 208 11 225 48 q 243 84 243 168 q 243 272 223 317 q 203 363 154 363 q 128 363 109 354 q 89 345 83 345 q 79 345 79 349 z"}}}
